<svg version="1" xmlns="http://www.w3.org/2000/svg" width="1585.333" height="1585.333" viewBox="0 0 1189.000000 1189.000000"><path d="M393.7 212.7c-.9 2.1-3.1 6.5-5 9.8-1.8 3.3-5.9 10.9-9.1 17-3.2 6-7.5 14.1-9.6 18-2 3.8-5.5 10.4-7.7 14.5s-6.4 12-9.3 17.5c-2.9 5.5-6.5 12.2-8 15-1.5 2.7-4.8 8.8-7.2 13.5-9.6 18.1-23.2 43.9-27.3 51.5-2.3 4.4-6.4 12-9 17-4.8 9.1-7 13.1-20 37.5-4 7.4-9.6 18-12.5 23.5-2.9 5.5-6.9 13.1-9 17-2 3.8-6.3 11.9-9.6 18-3.2 6-7.5 14.1-9.6 18-2.1 3.8-5.2 9.7-6.9 13-1.7 3.3-4.2 8-5.5 10.5-1.4 2.5-5.9 11-10.1 19-4.2 8-7.9 14.9-8.3 15.5-.4.5-4.2 7.7-8.5 16-4.3 8.2-8.1 15.4-8.5 16-.4.5-3.6 6.6-7.2 13.5s-8.1 15.4-10 19c-1.9 3.6-5.9 11-8.8 16.5-2.9 5.5-7 13.1-9 17-4.2 7.9-9.2 17.3-17 32-2.9 5.5-5.7 10.6-6.3 11.3-.5.7-.7 1.5-.4 1.8.3.3 3.3-3.4 6.6-8.3 3.4-4.8 8.4-12 11.2-15.8 2.7-3.9 6.6-9.5 8.7-12.5 2-3 4.2-6.2 4.9-7 .7-.8 12.3-17.3 25.8-36.5 13.5-19.3 25.7-36.6 27.1-38.5 4.3-6 50.4-71.4 60.2-85.4 4.9-7.1 7.7-11 15.8-22.6 3.3-4.7 12.1-17.1 19.4-27.5 7.4-10.5 18.6-26.4 25-35.3 6.3-9 12.2-17.3 13-18.5 5.2-7.5 24.1-34.4 24.7-35.2.5-.6 1.6-2.1 2.5-3.5.9-1.4 3.3-4.8 5.3-7.5 1.9-2.8 5.2-7.4 7.1-10.3 2-2.9 4.1-5.1 4.6-5 .5.2 5.8 6.9 11.8 14.8 6 8 11.3 14.9 11.8 15.5.4.5 9.5 12.5 20 26.5 10.6 14 19.9 26.2 20.6 27.1.7.8 9.1 11.9 18.6 24.5 9.6 12.6 25.1 33 34.5 45.4 16.7 21.9 25.8 33.9 73.6 97 12.7 16.8 23.8 31.2 24.7 32 1.4 1.3 1.5 1.3.5 0-.5-.8-4.1-7.4-7.8-14.5-3.7-7.2-7.1-13.5-7.5-14-.4-.6-3.6-6.4-7-13-7.7-14.7-13.2-25.1-17.5-33-1.8-3.3-5.5-10.3-8.2-15.5-2.8-5.2-6.7-12.7-8.8-16.5-4-7.5-9.3-17.5-17-32-4.6-8.7-7.7-14.5-16.3-30.5-2.2-4.1-5.9-11.1-8.2-15.5-6.1-11.6-12.7-24-17-32-5.8-10.9-11.3-21.1-16.8-31.5-5.8-11-10.8-20.4-16.4-31-8-14.9-11.6-21.7-16.3-30.5-2.6-5-6.4-12.2-8.5-16-2.1-3.9-5.8-10.8-8.2-15.5-2.5-4.7-7.9-14.8-12-22.5-4.1-7.7-10.6-19.9-14.3-27-8.6-16.5-8.8-16.7-10.8-11.8z"/><path d="M438 224.4c0 .1 2.4 4.8 5.4 10.4 3 5.6 8.3 15.5 11.7 21.9 3.5 6.5 7.8 14.5 9.6 17.8 1.8 3.3 3.6 6.7 4 7.5.3.8 5.8 11.2 12.1 23s13.5 25.3 15.9 30c2.5 4.7 6 11.2 7.8 14.5 1.8 3.3 5.3 9.9 7.9 14.7 8.5 16.2 13.8 26.2 21.1 39.8 4 7.4 9.8 18.4 13 24.5 3.1 6 6.5 12.3 7.5 14 .9 1.6 4.7 8.6 8.2 15.5 3.6 6.9 7.7 14.5 9 17 1.4 2.5 4.8 8.8 7.5 14 9 17.2 14.5 27.4 17.3 32.5 1.5 2.7 4.8 8.8 7.2 13.5 2.5 4.7 6.3 11.9 8.5 16s6.1 11.5 8.7 16.4c2.6 4.8 6.7 12.5 9.1 17 2.4 4.4 7.4 14 11.2 21.1 3.7 7.2 10.1 19.4 14.2 27.1l7.4 14.1 7.5-1.4c4.1-.8 7.7-1.2 8-.9.3.3-.1.6-1 .6-.8 0-2.8.6-4.4 1.4-1.6.8-6.7 3-11.4 4.9-4.7 1.9-11.5 4.9-15.3 6.6-3.7 1.7-6.9 3.1-7.1 3.1-.3 0-36.9 16.1-52.1 23-2.7 1.2-6.3 2.8-8 3.5-1.6.7-6.1 2.8-10 4.5-3.8 1.8-11 5-16 7.2-4.9 2.2-10.8 4.8-13 5.8-11.1 5-43.9 18.9-58 24.7-8.8 3.5-17.3 7-19 7.7-1.6.7-7.5 3-13 5.1-5.5 2-12.7 4.7-16 6-17.3 6.6-63 21-76.3 24-.9.2-5.4 1.3-10 2.5-4.6 1.1-11.6 2.7-15.5 3.6-4 .8-8.1 1.7-9.2 1.9-3.2.8-31.6 5.4-36 6-2.2.3-6.7.7-10 1.1-3.3.3-7.1.7-8.4.9-13.7 2.2-67.7 2.2-82.1 0-1.4-.2-5.2-.6-8.5-1-7.8-.8-23.4-3.2-26.5-4-.8-.2-3.2-.6-5.4-1-2.1-.3-4.1-.7-4.5-.9-.3-.2-2.2-.7-4.1-1-3.6-.6-14.2-3.3-24-6-13-3.6-38.7-12.6-48.5-17-13.9-6.2-23.7-10.8-33.5-15.9-9.9-5.1-15.5-8.2-28-15.5-2.6-1.5 13.6 14.5 24.1 23.8 69.2 61.2 142.5 99.6 214.6 112.4 9.5 1.7 10.9 1.9 20.3 3.1 3 .4 6.6.9 8 1.1 3.8.6 26.4 1.7 36.5 1.7 8.9 0 31.5-1.1 35.8-1.8 1.2-.2 5.3-.6 9.2-1 3.8-.4 7.2-.8 7.5-1 .3-.2 3.1-.6 6.3-1 24.6-2.6 78.7-17.2 111.7-30.1 22.3-8.8 33.7-13.5 46.8-19.5 3.5-1.6 6.5-2.9 6.8-2.9 2.2 0 77.9-37.8 108.4-54.2 4.7-2.5 13.5-7.1 19.5-10.3 6.1-3.2 14.2-7.4 18-9.5 3.9-2.1 10.6-5.7 15-8 13.7-7.4 67.4-34.3 79.5-39.9 65.6-30.5 121.4-48.6 170-55.1 4.7-.7 10.1-1.3 12-1.5 1.9-.2 7.1-.6 11.5-1 9.7-.9 38.7-.9 47-.1 3.3.3 8.5.9 11.5 1.2 45.6 4.8 97.5 23.7 138.5 50.3 8.5 5.5 10.7 6.8 8.5 4.9-15.2-13.1-43-33.1-61.5-44.3-16.4-10-43.5-23.7-56-28.5-6-2.3-6.2-2.6-14.7-14.9-4.8-6.9-10.8-15.8-13.5-19.6-4.9-7-27.2-39.5-36.8-53.5-2.9-4.1-8.4-12.2-12.4-18-4-5.8-9.2-13.4-11.7-17-2.4-3.6-20.5-29.9-40.1-58.5l-35.8-51.9-25-8.8c-13.7-4.8-35.8-12.6-49-17.2-13.2-4.6-46-16.2-73-25.6-26.9-9.5-57.1-20.1-67-23.5-9.9-3.5-25.9-9.1-35.5-12.5-9.6-3.4-22.4-7.9-28.5-10-14.2-4.9-48.6-17-59.5-20.9-12.9-4.5-44.7-15.6-52-18.1-3.6-1.3-7.4-2.6-8.5-3-7-2.7-11.2-4.2-12.5-4.5-.8-.2-8.9-3-18-6.3-15.7-5.6-21-7.3-21-6.8z"/><path d="M343.5 496.8l-3 .3.1 28.2c.1 15.5.2 28.4.3 28.7 0 .3 11.4.5 25.1.5h25v-28.7c0-15.9-.3-28.8-.7-28.9-3.2-.2-44.4-.3-46.8-.1zM403.3 497.3c-.4.6-.7 48.7-.4 55.7.1 1.3 3.5 1.5 25.1 1.5h25v-58h-24.6c-13.5 0-24.8.4-25.1.8zM340.6 595.7c.1 15.3.2 28.3.3 28.9.1.8 7.4 1.1 25.1 1.1h25V568h-50.5l.1 27.7zM402.9 570.2c-.1 2.5 0 48.6 0 52.9l.1 2.6h50V568h-50l-.1 2.2zM998.8 655.5c-.2.2-4.3.6-9.3.9-4.9.4-10.1.8-11.5 1-1.4.3-4.7.7-7.5 1.1-19.5 2.3-66.1 13.7-80 19.4-1.1.5-8.3 3.2-16 6.1-7.7 2.9-15.6 5.9-17.5 6.7-1.9.9-4.8 2.1-6.5 2.8-41.4 17.3-84.3 40.1-170.5 90.3-21.2 12.4-40.5 23.6-43 25-2.5 1.3-7.4 4.2-11 6.2-3.6 2-8.7 5-11.5 6.5-2.7 1.5-8.4 4.7-12.5 7-20.8 11.9-89.7 46.5-92.5 46.5-.2 0-3.2 1.3-6.7 2.9-3.5 1.5-11.2 4.7-17.3 7.1-6 2.3-12.4 4.8-14.2 5.6-1.7.8-3.7 1.4-4.5 1.4-.8 0-1.7.3-2.1.6-1.8 1.8-44.8 14.8-59.3 17.9-12.7 2.7-21.6 4.4-24.9 4.9-2.3.4-5 .8-6.1 1-1.1.2-4.7.7-7.9 1.1-3.3.4-6.8.9-7.9 1.1-10.2 1.9-56.9 2.6-72.1 1.1-7.6-.7-21.7-2.4-26-3.1-2-.4-17.2-3.2-21.2-4-12.2-2.5-45.2-12.8-59.4-18.7-3.8-1.5-6.9-2.6-6.9-2.5 0 .2 4.8 3.4 10.8 7.1 5.9 3.7 12.3 7.8 14.2 9 12.9 8.4 46.7 26.2 64 33.8 10.6 4.6 27.7 11.7 29.5 12.1.6.2 1.7.6 2.5.9 2.5 1.1 28.6 9.6 31.1 10.1 1.3.3 7.7 1.9 14.1 3.5 6.4 1.6 13 3.2 14.5 3.5 23 4 26.7 4.5 43.3 6.3 14.9 1.5 66.4.7 74-1.2.8-.2 3.8-.6 6.5-1 6.3-.7 15.7-2.3 21.5-3.5 2.5-.5 5.9-1.2 7.5-1.5 1.7-.3 8.2-1.8 14.5-3.5 6.3-1.7 12.4-3.3 13.5-3.5 3.7-.9 26-8.4 36.5-12.3 31.3-11.7 70.7-31.7 113.8-57.7.9-.6 2.8-1.8 4.2-2.6 1.4-.9 5.9-3.8 10-6.4 19.8-12.7 45.4-30 73.5-49.8 25-17.6 27.2-19.2 48.5-34 10.7-7.5 20-14 20.5-14.5 2.4-1.9 40.2-26.6 51.5-33.7 12.9-7.9 15-9.2 31-18.2 12.3-7 41-21 52.5-25.8 9.1-3.7 36.1-13.2 39.9-13.9 1.2-.3 5.9-1.4 10.6-2.6 9.5-2.5 10.7-2.7 16.4-3.6 2.2-.3 4.3-.7 4.6-.9.3-.1 3.2-.6 6.5-.9 3.3-.4 7.9-.9 10.3-1.2 14.5-1.9 42.8-.9 61.2 2.2 18.2 3 45.2 10.9 55.2 16 1.6.9 3.2 1.3 3.4 1.1 1-.9-21.4-13.1-38.1-20.7-23.3-10.7-54.3-20.5-76.5-24-4.1-.7-8.3-1.4-9.4-1.6-1-.2-4.1-.6-7-.9-2.8-.3-6.9-.8-9.1-1.1-4.4-.5-45.3-1.3-45.7-.9z"/></svg>